<svg xmlns="http://www.w3.org/2000/svg" viewBox="0 0 287.2 68.25"><defs><style>.cls-1{fill:#fff;}.cls-2{fill:#f9f9f9;}</style></defs><g id="Layer_2" data-name="Layer 2"><g id="text"><path class="cls-1" d="M102.44,29.14a6.88,6.88,0,0,1,2.78,2.94,10.09,10.09,0,0,1,1,4.67V48.56h-5.08V37.44a5.21,5.21,0,0,0-1.2-3.68,4.25,4.25,0,0,0-3.27-1.29,4.35,4.35,0,0,0-3.33,1.29,5.17,5.17,0,0,0-1.22,3.68V48.56H87V21.67h5.08v9.27a6.64,6.64,0,0,1,2.62-2.05,8.6,8.6,0,0,1,3.63-.75A8.1,8.1,0,0,1,102.44,29.14Z"/><path class="cls-1" d="M111,33a9,9,0,0,1,3.3-3.63,8.8,8.8,0,0,1,4.67-1.27,8.28,8.28,0,0,1,4,.9,8,8,0,0,1,2.7,2.29V28.43h5.13V48.56h-5.13V45.62a7.38,7.38,0,0,1-2.7,2.34,8.29,8.29,0,0,1-4,.93,8.52,8.52,0,0,1-4.64-1.31A9.16,9.16,0,0,1,111,43.9a11.78,11.78,0,0,1-1.22-5.47A11.57,11.57,0,0,1,111,33Zm13.9,2.31a5.16,5.16,0,0,0-2-2,5.34,5.34,0,0,0-5.27,0,5.29,5.29,0,0,0-1.94,2,6.33,6.33,0,0,0-.74,3.15,6.5,6.5,0,0,0,.74,3.18,5.49,5.49,0,0,0,2,2.09,5,5,0,0,0,2.6.72,5.24,5.24,0,0,0,4.62-2.74,7.38,7.38,0,0,0,0-6.36Z"/><path class="cls-1" d="M140.78,21.67V48.56H135.7V21.67Z"/><path class="cls-1" d="M149.51,47.6A9.31,9.31,0,0,1,145.85,44a11,11,0,0,1-1.32-5.45,10.68,10.68,0,0,1,1.36-5.45,9.55,9.55,0,0,1,3.72-3.66,11.49,11.49,0,0,1,10.54,0,9.51,9.51,0,0,1,3.73,3.66,10.68,10.68,0,0,1,1.36,5.45,10.53,10.53,0,0,1-1.4,5.45,9.68,9.68,0,0,1-3.78,3.65,11,11,0,0,1-5.32,1.29A10.59,10.59,0,0,1,149.51,47.6Zm7.83-3.81a4.86,4.86,0,0,0,1.94-2A6.87,6.87,0,0,0,160,38.5a6.09,6.09,0,0,0-1.51-4.42,5,5,0,0,0-3.69-1.54,4.83,4.83,0,0,0-3.65,1.54,6.16,6.16,0,0,0-1.47,4.42,6.23,6.23,0,0,0,1.43,4.41,4.73,4.73,0,0,0,3.62,1.55A5.41,5.41,0,0,0,157.34,43.79Z"/><path class="cls-1" d="M196.89,28.43,191,48.56h-5.49L181.85,34.5l-3.67,14.06h-5.53l-5.92-20.13h5.16l3.56,15.34,3.85-15.34h5.38l3.78,15.3L192,28.43Z"/><path class="cls-1" d="M218.22,40H203.51A5,5,0,0,0,205,43.44a4.74,4.74,0,0,0,3.31,1.24,4.16,4.16,0,0,0,4-2.44h5.49A9.2,9.2,0,0,1,214.52,47a9.75,9.75,0,0,1-6.07,1.87,10.52,10.52,0,0,1-5.22-1.29A9.14,9.14,0,0,1,199.64,44a11.2,11.2,0,0,1-1.29-5.45A11.41,11.41,0,0,1,199.62,33a8.83,8.83,0,0,1,3.56-3.63,11.46,11.46,0,0,1,10.41,0,8.71,8.71,0,0,1,3.53,3.51,10.65,10.65,0,0,1,1.25,5.21A11.57,11.57,0,0,1,218.22,40Zm-5.12-3.41a4,4,0,0,0-1.42-3.14,5,5,0,0,0-3.38-1.19,4.64,4.64,0,0,0-3.18,1.15,5,5,0,0,0-1.58,3.18Z"/><path class="cls-1" d="M222,33a9,9,0,0,1,3.31-3.63A8.78,8.78,0,0,1,230,28.11a8.24,8.24,0,0,1,3.94.9,8.05,8.05,0,0,1,2.71,2.29V28.43h5.13V48.56h-5.13V45.62A7.42,7.42,0,0,1,233.9,48a8.24,8.24,0,0,1-4,.93,8.49,8.49,0,0,1-4.63-1.31A9.25,9.25,0,0,1,222,43.9a11.9,11.9,0,0,1-1.21-5.47A11.69,11.69,0,0,1,222,33Zm13.91,2.31a5.16,5.16,0,0,0-2-2,5.25,5.25,0,0,0-2.65-.7,5.16,5.16,0,0,0-2.62.69,5.22,5.22,0,0,0-1.94,2,6.33,6.33,0,0,0-.75,3.15,6.5,6.5,0,0,0,.75,3.18,5.49,5.49,0,0,0,2,2.09,5,5,0,0,0,2.6.72,5.24,5.24,0,0,0,4.62-2.74,7.38,7.38,0,0,0,0-6.36Z"/><path class="cls-1" d="M255.11,43.88l5.09-15.45h5.41l-7.45,20.13H252l-7.41-20.13H250Z"/><path class="cls-1" d="M287.05,40H272.33a5,5,0,0,0,1.53,3.42,4.74,4.74,0,0,0,3.31,1.24,4.16,4.16,0,0,0,4-2.44h5.49A9.16,9.16,0,0,1,283.34,47a9.72,9.72,0,0,1-6.06,1.87,10.52,10.52,0,0,1-5.22-1.29,9.1,9.1,0,0,1-3.6-3.65,11.2,11.2,0,0,1-1.29-5.45A11.53,11.53,0,0,1,268.44,33,8.92,8.92,0,0,1,272,29.38a11.46,11.46,0,0,1,10.41,0,8.62,8.62,0,0,1,3.52,3.51,10.55,10.55,0,0,1,1.26,5.21A11.57,11.57,0,0,1,287.05,40Zm-5.12-3.41a4,4,0,0,0-1.42-3.14,5,5,0,0,0-3.38-1.19A4.64,4.64,0,0,0,274,33.43a5,5,0,0,0-1.58,3.18Z"/></g><g id="sc"><path class="cls-2" d="M6.27,35.22c1.47,35.6,52.19,35.59,53.66,0a26.83,26.83,0,1,0-53.66,0Zm50.67,0a23.84,23.84,0,0,1-47.68,0C10.57,3.59,55.63,3.6,56.94,35.22Z"/><path class="cls-2" d="M19.39,2.05,0,21.44V48.86L19.39,68.25H46.81L66.2,48.86V21.44L46.81,2.05ZM63.44,47.72,45.67,65.49H20.53L2.76,47.72V22.58L20.53,4.81H45.67L63.44,22.58Z"/><path class="cls-2" d="M62.79,0a5.43,5.43,0,1,0,5.42,5.42A5.43,5.43,0,0,0,62.79,0Zm0,8.14A2.72,2.72,0,1,1,65.5,5.42,2.72,2.72,0,0,1,62.79,8.14Z"/></g></g></svg>